<?xml version="1.0" encoding="UTF-8"?>
<svg width="900px" height="720px" viewBox="0 0 900 720" xmlns="http://www.w3.org/2000/svg" xmlns:xlink="http://www.w3.org/1999/xlink" version="1.1">
 <!-- Generated by Pixelmator Pro 1.1.5 -->
 <path id="path" d="M487 87 L488 88 490 88 491 89 500 89 501 90 504 90 505 91 507 91 508 92 509 92 510 93 512 93 519 100 519 101 520 102 520 103 521 104 521 107 522 108 522 113 523 114 523 128 524 129 524 179 523 180 523 189 522 190 522 194 521 195 521 197 520 198 520 199 519 200 519 201 518 202 518 203 516 205 516 206 514 208 513 208 507 214 506 214 500 220 500 223 497 226 434 226 404 226 402 224 402 222 401 221 401 220 395 214 394 214 392 212 391 212 389 210 388 210 382 204 382 203 381 202 381 200 380 199 380 198 379 197 379 190 378 189 378 171 377 170 377 150 377 135 378 134 378 117 379 116 379 108 380 107 380 104 381 103 381 102 381 101 385 97 385 96 387 94 388 94 389 93 390 93 391 92 392 92 393 91 397 91 398 90 404 90 405 89 409 89 410 88 413 88 415 86 415 83 416 82 416 61 417 60 485 60 486 61 486 80 487 81 487 87 Z" fill="#00a2ff" fill-opacity="1" stroke="#000000" stroke-width="1" stroke-opacity="1" stroke-linejoin="round"/>
 <path id="path-1" d="M542 248 L548 248 549 249 551 249 552 250 553 250 554 251 555 251 556 252 557 252 558 253 559 253 562 256 563 256 565 258 565 259 570 264 570 265 571 266 571 267 572 268 572 269 574 271 574 272 575 273 575 274 576 275 576 277 579 280 579 282 581 284 581 286 583 288 583 289 584 290 584 291 585 292 585 293 586 294 586 295 587 296 587 297 588 298 588 299 589 300 589 301 590 302 590 303 591 304 591 306 592 307 592 308 593 309 593 310 594 311 594 312 595 313 595 315 596 316 596 317 597 318 597 319 598 320 598 322 599 323 599 324 600 325 600 327 601 328 601 329 602 330 602 332 603 333 603 334 604 335 604 338 605 339 605 340 606 341 606 343 607 344 607 347 608 348 608 350 609 351 609 354 610 355 610 357 611 358 611 362 612 363 612 367 613 368 613 372 614 373 614 380 615 381 615 398 614 399 614 406 613 407 613 412 613 415 614 416 614 417 616 419 616 420 619 423 620 423 629 432 629 433 631 435 631 436 632 437 632 438 633 439 633 440 634 441 634 444 635 445 635 447 636 448 636 454 637 455 637 461 636 462 636 468 635 469 635 471 634 472 634 474 633 475 633 476 629 480 628 480 625 483 624 483 623 484 622 484 620 482 620 480 619 479 619 476 618 475 618 469 617 468 617 462 616 461 616 454 615 453 615 450 614 449 614 446 612 444 612 443 608 439 607 439 606 438 603 438 602 437 600 437 599 438 593 438 592 439 590 439 589 440 587 440 585 442 584 442 580 446 580 447 579 448 579 459 580 460 580 463 581 464 581 467 582 468 582 471 583 472 583 476 584 477 584 487 581 490 579 490 578 491 577 491 576 490 575 490 566 481 566 480 563 477 563 476 562 475 562 474 561 473 561 472 560 471 560 469 559 468 559 465 558 464 558 450 559 449 559 446 560 445 560 443 561 442 561 440 562 439 562 438 564 436 564 435 565 434 565 433 567 431 567 429 568 428 568 426 569 425 569 422 568 421 568 417 567 416 567 413 566 412 566 410 565 409 565 406 564 405 564 402 563 401 563 397 562 396 562 393 561 392 561 388 560 387 560 383 559 382 559 378 558 377 558 372 557 371 557 367 556 366 556 362 555 361 555 356 554 355 554 350 553 349 553 344 552 343 552 339 551 338 551 333 550 332 550 326 549 325 549 321 548 320 548 314 547 313 547 308 546 307 546 302 545 301 545 296 544 295 544 289 543 288 543 283 542 282 542 276 541 275 541 269 540 268 540 262 539 261 539 255 538 254 538 249 539 248 542 248 Z" fill="#00a2ff" fill-opacity="1" stroke="#000000" stroke-width="1" stroke-opacity="1" stroke-linejoin="round"/>
 <path id="path-2" d="M361 248 L360 249 354 249 353 250 350 250 349 251 347 251 346 252 345 252 343 254 342 254 339 257 338 257 333 262 333 263 332 264 332 265 330 267 330 268 328 270 328 271 327 272 327 273 326 274 326 275 324 277 324 279 322 281 322 282 321 283 321 284 320 285 320 286 319 287 319 288 318 289 318 290 317 291 317 292 316 293 316 294 315 295 315 296 314 297 314 298 313 299 313 300 312 301 312 302 311 303 311 304 310 305 310 306 309 307 309 308 308 309 308 310 307 311 307 312 306 313 306 315 305 316 305 317 304 318 304 319 303 320 303 322 302 323 302 324 301 325 301 327 300 328 300 329 299 330 299 332 298 333 298 335 297 336 297 338 296 339 296 341 295 342 295 344 294 345 294 347 293 348 293 350 292 351 292 355 291 356 291 359 290 360 290 364 289 365 289 369 288 370 288 375 287 376 287 386 286 387 286 397 287 398 287 417 286 418 286 419 270 435 270 436 269 437 269 438 267 440 267 441 266 442 266 444 265 445 265 448 264 449 264 459 265 460 265 465 266 466 266 469 267 470 267 473 268 474 268 476 269 477 269 479 270 480 270 481 272 483 273 483 274 484 275 484 278 484 281 481 281 479 283 477 283 476 284 475 284 471 285 470 285 455 286 454 286 450 287 449 287 447 294 440 295 440 296 439 297 439 298 438 306 438 307 439 308 439 309 440 311 440 312 441 313 441 321 449 321 450 322 451 322 461 321 462 321 464 320 465 320 468 319 469 319 472 318 473 318 476 317 477 317 492 318 493 321 493 322 492 324 492 327 489 328 488 329 488 336 481 336 480 338 478 338 477 339 476 339 475 340 474 340 472 341 471 341 469 342 468 342 464 343 463 343 452 342 451 342 446 341 445 341 443 340 442 340 441 339 440 339 439 337 437 337 436 336 435 336 434 334 432 334 431 333 430 333 429 332 428 332 424 332 422 333 421 333 417 334 416 334 413 335 412 335 409 336 408 336 404 337 403 337 399 338 398 338 394 339 393 339 389 340 388 340 384 341 383 341 379 342 378 342 374 343 373 343 368 344 367 344 363 345 362 345 358 346 357 346 353 347 352 347 347 348 346 348 341 349 340 349 336 350 335 350 331 351 330 351 325 352 324 352 319 353 318 353 314 354 313 354 308 355 307 355 302 356 301 356 297 357 296 357 291 358 290 358 285 359 284 359 279 360 278 360 273 361 272 361 266 362 265 362 259 363 258 363 249 362 248 361 248 Z" fill="#00a2ff" fill-opacity="1" stroke="#000000" stroke-width="1" stroke-opacity="1" stroke-linejoin="round"/>
 <path id="path-3" d="M458 656 L458 655 457 654 457 616 471 616 472 615 543 615 544 616 549 616 550 617 550 620 551 621 551 652 551 654 550 655 549 655 548 656 458 656 Z M351 655 L350 654 350 650 350 649 350 617 351 616 442 616 444 616 445 617 445 654 444 655 443 655 351 655 Z M351 607 L350 606 350 600 350 456 351 455 413 455 414 454 522 454 523 455 539 455 540 456 547 456 548 457 549 457 550 458 550 567 551 568 551 606 550 607 548 607 458 607 456 605 456 602 456 552 455 551 455 535 454 534 447 534 446 535 446 538 445 539 445 606 444 607 441 607 351 607 Z" fill="#00a2ff" fill-opacity="1" stroke="#000000" stroke-width="1" stroke-opacity="1" stroke-linejoin="round"/>
 <path id="path-4" d="M351 447 L350 446 350 440 349 439 349 426 348 425 348 421 347 420 347 417 346 416 346 400 347 399 347 394 348 393 348 388 349 387 349 382 350 381 350 376 351 375 351 370 352 369 352 364 353 363 353 358 354 357 354 352 355 351 355 346 356 345 356 340 357 339 357 334 358 333 358 328 359 327 359 322 360 321 360 316 361 315 361 310 362 309 362 305 363 304 363 299 364 298 364 293 365 292 365 288 366 287 366 282 367 281 367 277 368 276 368 272 369 271 369 267 370 266 370 262 371 261 371 257 372 256 372 252 373 251 373 248 374 247 374 244 375 243 375 240 376 239 376 237 377 236 380 236 381 235 426 235 474 235 475 236 514 236 515 237 524 237 525 238 525 239 526 240 526 242 527 243 527 246 528 247 528 251 529 252 529 255 530 256 530 260 531 261 531 265 532 266 532 271 533 272 533 275 534 276 534 281 535 282 535 286 536 287 536 291 537 292 537 296 538 297 538 302 539 303 539 307 540 308 540 313 541 314 541 320 542 321 542 325 543 326 543 331 544 332 544 337 545 338 545 343 546 344 546 348 547 349 547 354 548 355 548 360 549 361 549 367 550 368 550 372 551 373 551 379 552 380 552 385 553 386 553 392 554 393 554 400 555 401 555 415 554 416 554 417 552 419 552 420 551 421 551 426 550 427 550 446 549 447 471 447 351 447 Z M408.473 363.5 L491.16 363.5 451.363 266.75 448.199 266.75 408.473 363.5 Z M418.668 357.031 L445.598 290.938 472.387 357.031 418.668 357.031 Z" fill="#00a2ff" fill-opacity="1" stroke="#000000" stroke-width="1" stroke-opacity="1" stroke-linejoin="round"/>
</svg>
